<?xml version="1.0" encoding="utf-8"?>
<!-- Generator: Adobe Illustrator 19.1.0, SVG Export Plug-In . SVG Version: 6.00 Build 0)  -->
<!DOCTYPE svg PUBLIC "-//W3C//DTD SVG 1.1//EN" "http://www.w3.org/Graphics/SVG/1.1/DTD/svg11.dtd">
<svg version="1.1" id="Layer_1" xmlns="http://www.w3.org/2000/svg" xmlns:xlink="http://www.w3.org/1999/xlink" x="0px" y="0px"
	 viewBox="0 0 172.2 28" enable-background="new 0 0 172.2 28" xml:space="preserve">
<path fill="#FFFFFF" d="M67,8.8L62.9,28H44c-2.1,0-3.7-0.8-4.9-2.5c-1.1-1.7-1.5-3.7-1-5.9s1.6-4.2,3.5-5.8c1.9-1.7,3.8-2.5,6-2.5
	h12.2l0.5-2.1c0.1-0.6,0-1.1-0.3-1.5C59.7,7.2,59.3,7,58.7,7H42.4l1.4-7h16.6c2.3,0,4,0.9,5.3,2.6C67.1,4.3,67.5,6.4,67,8.8z
	 M47.3,16.8c-0.6,0-1.1,0.2-1.6,0.6s-0.8,0.9-0.9,1.5c-0.1,0.3-0.1,0.6,0,0.8c0.1,0.3,0.2,0.5,0.3,0.7c0.1,0.2,0.3,0.3,0.5,0.5
	c0.2,0.1,0.5,0.2,0.7,0.2h11.3l0.9-4.2H47.3V16.8z M83.3,14l6,14h-8.4l-3.1-8.1L71.3,28h-8.4l12-14L68.8,0h8.4l3.1,8.1L86.9,0h8.4
	C95.3,0,83.3,14,83.3,14z"/>
<path fill="#FFFFFF" d="M113.9,7h-12.6c-0.6,0-1.2,0.2-1.8,0.7c-0.6,0.5-0.9,1.1-1,1.7l-1.9,9.1c-0.2,0.7,0,1.3,0.3,1.7
	c0.3,0.5,0.8,0.8,1.4,0.8h14.3l-1.5,7H96.2c-2.3,0-4-0.9-5.3-2.6c-1.3-1.7-1.7-3.8-1.2-6.2L92,8.8c0.5-2.4,1.8-4.4,3.7-6.1
	c2-1.7,4.1-2.6,6.4-2.6h13.2L113.9,7z"/>
<path fill="#FFFFFF" d="M143.2,13.9c0.8-3.5,0-7.1-2.1-9.7c-2.1-2.6-5.4-4.1-9-4.1h-12.7l-6,27.9h15.2c6.7-0.5,12.9-5.7,14.3-12.3
	C142.9,15.7,143.2,13.9,143.2,13.9z M136.2,12.4l-0.4,1.8c-0.8,3.6-4.6,6.7-8.3,6.7h-5.4l3-13.7h6.9c1.5,0,2.7,0.5,3.5,1.5
	C136.3,9.6,136.5,10.9,136.2,12.4z"/>
<path fill="#FFFFFF" d="M171.9,8.8l-4,19.2h-6.6l3.9-18.5c0.1-0.3,0.1-0.6,0-0.9c-0.1-0.4-0.2-0.6-0.3-0.9c-0.2-0.2-0.4-0.4-0.6-0.5
	C164,7.1,163.7,7,163.4,7h-11L148,28h-6.6l5.9-28h18.2c2.3,0,4,0.9,5.3,2.6C172.1,4.3,172.5,6.4,171.9,8.8z"/>
<path fill="#FFFFFF" d="M36.3,3.4C34.6,1.3,31.9,0,28.9,0H1.1l3.3,7.1L0,28h7.3l4.4-20.8H18L13.5,28h7.3l4.4-20.8h3.7
	c0.8,0,1.4,0.3,1.8,0.7c0.4,0.5,0.5,1.2,0.3,1.9L27.2,28h7.3l3.6-16.7C38.7,8.5,38,5.6,36.3,3.4z"/>
</svg>
